#!OML:ASF H:\Terrain\Walking\May29\JustinRory\Justin.ASF
:FULLY-SPECIFIED
:DEGREES
147
root 17.3102 16.8578 -1.26948 -195.68 -71.2477 -157.609
lowerback 16.3378 2.22109 3.45265
upperback 4.66052 3.31927 5.84872
thorax -4.3241 1.41093 3.60609
lowerneck 2.84862 -17.6584 -15.5005
upperneck 7.19552 -25.1815 14.16
head 5.45391 -12.5237 4.93692
rclavicle 1.82882e-014 1.27222e-014
rhumerus -2.58958 -52.0815 -35.514
rradius 53.9625
rwrist -59.0951
rhand 14.1215 19.0794
rfingers 7.12502
rthumb 39.0241 -6.43367
lclavicle 1.82882e-014 1.27222e-014
lhumerus -47.1956 21.4809 59.1249
lradius 28.233
lwrist -9.87818
lhand -1.78528 33.6418
lfingers 7.12502
lthumb 23.8793 62.1773
rfemur -17.4119 -8.59045 11.2796
rtibia 30.6577
rfoot -10.7767 -3.70644
rtoes -24.9256
lfemur -37.8878 11.5108 -16.7335
ltibia 76.4628
lfoot -13.4285 -1.66762
ltoes -3.85207
148
root 17.3035 16.9181 -1.23411 -196.26 -71.5159 -157.039
lowerback 16.4165 2.22188 3.05396
upperback 4.74762 3.25441 5.8887
thorax -4.29705 1.37973 3.88687
lowerneck 2.89864 -17.6026 -15.5736
upperneck 6.94935 -25.1004 14.3969
head 5.39924 -12.4863 5.0368
rclavicle -1.07344e-014 -1.35174e-014
rhumerus -2.50965 -52.7303 -35.4662
rradius 53.5095
rwrist -58.9478
rhand 14.76 18.715
rfingers 7.12502
rthumb 39.6256 -6.62284
lclavicle -1.07344e-014 -1.35174e-014
lhumerus -47.962 22.9758 57.1931
lradius 26.4564
lwrist -12.712
lhand -1.45864 32.9338
lfingers 7.12502
lthumb 24.1925 61.4279
rfemur -17.3891 -7.89654 11.1424
rtibia 30.259
rfoot -10.4944 -4.53719
rtoes -24.024
lfemur -37.1862 12.5743 -16.8644
ltibia 76.0515
lfoot -13.6965 -1.37119
ltoes -3.08364
149
root 17.3001 16.9451 -1.20945 -197.65 -71.4161 -155.985
lowerback 16.8009 2.36097 2.84347
upperback 4.97969 3.39183 5.948
thorax -4.27834 1.43726 4.03643
lowerneck 2.76925 -17.6312 -15.463
upperneck 6.83252 -25.1121 14.5134
head 5.38795 -12.4825 5.04694
rclavicle -1.27222e-014 -3.81667e-014
rhumerus -1.78123 -54.7097 -36.0277
rradius 52.4605
rwrist -57.6059
rhand 14.6138 19.3062
rfingers 7.12502
rthumb 39.488 -6.07222
lclavicle -1.27222e-014 -3.81667e-014
lhumerus -48.5857 24.0908 55.451
lradius 24.9863
lwrist -15.1469
lhand -1.71604 32.9293
lfingers 7.12502
lthumb 23.9457 61.4561
rfemur -16.8068 -7.1625 11.3488
rtibia 29.8733
rfoot -10.3125 -5.20371
rtoes -26.0771
lfemur -36.1355 13.9571 -16.6092
ltibia 75.7246
lfoot -14.0971 -0.745418
ltoes -3.93792
150
root 17.2974 16.9337 -1.17798 -199.177 -71.5331 -154.687
lowerback 17.1774 2.42189 2.86421
upperback 5.05633 3.48289 5.94428
thorax -4.40046 1.47593 3.99432
lowerneck 2.81181 -17.6796 -15.3384
upperneck 6.80605 -25.1877 14.6023
head 5.38093 -12.5177 5.05241
rclavicle 2.78299e-015 -3.97569e-015
rhumerus -2.95369 -55.0487 -34.9547
rradius 52.1657
rwrist -57.4995
rhand 15.1444 19.1054
rfingers 7.12502
rthumb 39.9876 -6.12443
lclavicle 2.78299e-015 -3.97569e-015
lhumerus -49.2675 24.9668 53.7066
lradius 23.7044
lwrist -17.2775
lhand -2.20022 32.8431
lfingers 7.12502
lthumb 23.4813 61.4301
rfemur -16.2437 -6.67222 11.5201
rtibia 29.5248
rfoot -10.3886 -5.8843
rtoes -27.6894
lfemur -35.324 15.0817 -16.4431
ltibia 75.3668
lfoot -14.3975 0.308134
ltoes -5.94367
151
root 17.2994 16.9266 -1.16817 -199.908 -71.4671 -153.945
lowerback 17.2365 2.72724 2.41265
upperback 5.10952 3.81227 5.93886
thorax -4.42337 1.641 4.17416
lowerneck 2.78888 -17.7731 -15.103
upperneck 6.78334 -25.3356 14.8275
head 5.40124 -12.5798 5.06655
rclavicle -2.90226e-014 3.89618e-014
rhumerus -4.36012 -55.9535 -33.8359
rradius 52.0207
rwrist -57.4478
rhand 14.3915 18.4156
rfingers 7.12502
rthumb 39.2786 -7.02403
lclavicle -2.90226e-014 3.89618e-014
lhumerus -49.6276 25.4721 52.3499
lradius 22.6783
lwrist -18.6982
lhand -2.66424 32.9363
lfingers 7.12502
lthumb 23.0362 61.5795
rfemur -16.0062 -5.7768 11.7011
rtibia 29.1692
rfoot -10.6073 -6.77928
rtoes -26.951
lfemur -34.8326 16.6142 -16.2445
ltibia 75.1102
lfoot -14.7382 1.04725
ltoes -5.68477
152
root 17.3113 16.934 -1.20785 -199.412 -70.4586 -154.784
lowerback 17.4749 3.6658 0.794958
upperback 5.34922 4.77288 6.05979
thorax -4.49664 2.11585 5.01307
lowerneck 2.84349 -17.9196 -14.8271
upperneck 6.54427 -25.5602 15.2622
head 5.37781 -12.6819 5.13849
rclavicle -1.35174e-014 2.78299e-014
rhumerus -5.6309 -57.5396 -32.8455
rradius 51.9456
rwrist -57.4008
rhand 15.676 17.6973
rfingers 7.12502
rthumb 40.4875 -7.37982
lclavicle -1.35174e-014 2.78299e-014
lhumerus -49.7021 25.7192 51.3899
lradius 21.9006
lwrist -19.4948
lhand -2.85192 33.5946
lfingers 7.12502
lthumb 22.8561 62.2602
rfemur -15.7308 -3.57772 11.9389
rtibia 28.9653
rfoot -10.8612 -7.90338
rtoes -25.9735
lfemur -33.7424 19.5929 -15.7147
ltibia 74.8808
lfoot -15.3302 1.43216
ltoes -4.26744
153
root 17.2902 16.9198 -1.13333 -201.86 -71.7135 -151.168
lowerback 16.3337 3.21782 1.55789
upperback 5.00406 4.32145 6.09254
thorax -4.16248 1.91222 4.74457
lowerneck 3.12598 -18.0282 -14.7357
upperneck 6.27572 -25.7209 15.4376
head 5.2867 -12.7747 5.19172
rclavicle 3.57812e-014 6.36111e-015
rhumerus -7.20501 -58.0532 -31.2178
rradius 51.5017
rwrist -57.5167
rhand 16.2106 17.1699
rfingers 7.12502
rthumb 40.9899 -7.7497
lclavicle 3.57812e-014 6.36111e-015
lhumerus -50.0031 25.6792 50.6544
lradius 21.3986
lwrist -19.6352
lhand -2.94232 34.3097
lfingers 7.12502
lthumb 22.7693 62.986
rfemur -16.3196 -4.66429 12.3851
rtibia 28.6962
rfoot -10.5209 -8.61328
rtoes -28.3529
lfemur -35.0297 19.5006 -15.932
ltibia 74.9145
lfoot -15.7053 2.89774
ltoes -4.14973
154
root 17.2673 16.8906 -1.04612 -206.627 -73.1724 -144.075
lowerback 13.9933 2.40669 3.1276
upperback 4.3449 3.45284 6.31333
thorax -3.45084 1.50886 4.3147
lowerneck 3.34441 -17.9592 -15.1001
upperneck 6.25866 -25.6854 15.6746
head 5.32078 -12.7713 5.32364
rclavicle -3.93594e-014 -5.24792e-014
rhumerus -8.32839 -58.3229 -29.8912
rradius 50.9254
rwrist -57.3312
rhand 15.199 16.2553
rfingers 7.12502
rthumb 40.0389 -8.95902
lclavicle -3.93594e-014 -5.24792e-014
lhumerus -50.6996 25.762 49.9007
lradius 21.2099
lwrist -19.3019
lhand -3.19937 34.7576
lfingers 7.12502
lthumb 22.5226 63.4641
rfemur -17.8793 -6.44112 13.6659
rtibia 28.3433
rfoot -10.0161 -9.40549
rtoes -31.0146
lfemur -37.8653 18.8268 -15.8924
ltibia 75.1001
lfoot -15.854 4.27477
ltoes -4.71406
155
root 17.252 16.8438 -0.926881 -216.129 -74.9376 -135.075
lowerback 14.8865 1.34101 5.39573
upperback 4.30913 2.40592 6.31757
thorax -3.80717 0.964747 3.20799
lowerneck 3.41907 -17.9673 -15.2893
upperneck 6.35042 -25.7666 16.0004
head 5.4199 -12.811 5.42579
rclavicle -1.19271e-015 1.66979e-014
rhumerus -9.95114 -58.866 -28.3121
rradius 50.4894
rwrist -57.0527
rhand 14.6018 15.8264
rfingers 7.12502
rthumb 39.4767 -9.55542
lclavicle -1.19271e-015 1.66979e-014
lhumerus -51.165 25.7789 49.2571
lradius 21.2888
lwrist -18.659
lhand -3.4697 35.1852
lfingers 7.12502
lthumb 22.2631 63.9228
rfemur -16.1642 -8.87184 14.21
rtibia 27.8818
rfoot -10.0737 -9.58976
rtoes -31.2604
lfemur -37.3319 17.249 -15.2254
ltibia 75.0579
lfoot -16.0422 5.89581
ltoes -4.80712
156
root 17.2364 16.8212 -0.853568 -223.527 -75.742 -127.62
lowerback 14.8499 0.936972 6.65525
upperback 4.30045 2.04464 6.27866
thorax -3.73477 0.77985 2.52609
lowerneck 3.20398 -18.2739 -14.955
upperneck 6.4633 -26.1911 16.1425
head 5.53275 -12.9946 5.33682
rclavicle -3.18055e-014 2.94201e-014
rhumerus -12.4873 -59.967 -25.8613
rradius 49.9582
rwrist -56.4115
rhand 14.7666 15.5103
rfingers 7.12502
rthumb 39.6319 -9.82576
lclavicle -3.18055e-014 2.94201e-014
lhumerus -50.7968 25.2599 49.1603
lradius 21.526
lwrist -17.73
lhand -3.43348 35.9232
lfingers 7.12502
lthumb 22.2979 64.6567
rfemur -15.326 -10.021 14.739
rtibia 27.4646
rfoot -10.139 -10.1744
rtoes -31.0021
lfemur -37.2391 16.8199 -14.7445
ltibia 74.83
lfoot -16.21 7.32746
ltoes -4.55718
157
root 17.2243 16.8099 -0.811108 -225.644 -76.0652 -125.366
lowerback 14.6909 1.11762 6.29359
upperback 4.33749 2.21946 6.25416
thorax -3.62488 0.874409 2.67219
lowerneck 3.05534 -18.4969 -14.8048
upperneck 6.33808 -26.4921 16.4249
head 5.58625 -13.1271 5.33959
rclavicle 9.54166e-015 -1.51076e-014
rhumerus -14.6228 -60.9126 -23.4111
rradius 49.0643
rwrist -55.7761
rhand 15.7153 15.0899
rfingers 7.12502
rthumb 40.5245 -9.97575
lclavicle 9.54166e-015 -1.51076e-014
lhumerus -50.5697 25.2735 48.8769
lradius 21.77
lwrist -17.4151
lhand -3.12734 36.3336
lfingers 7.12502
lthumb 22.5917 65.0316
rfemur -14.9594 -9.54691 14.6814
rtibia 26.9587
rfoot -10.122 -11.1318
rtoes -30.1883
lfemur -37.0494 17.632 -14.9231
ltibia 74.3258
lfoot -16.7773 8.31713
ltoes -5.15502
158
root 17.2198 16.7884 -0.779508 -227.751 -76.3286 -123.438
lowerback 15.0311 1.36039 5.63887
upperback 4.35361 2.48558 6.29168
thorax -3.827 1.0067 3.02766
lowerneck 3.33302 -18.6518 -14.6027
upperneck 5.86388 -26.6921 16.7257
head 5.44389 -13.2427 5.41617
rclavicle -2.24627e-014 -6.36111e-015
rhumerus -17.0889 -61.3013 -20.7178
rradius 48.3499
rwrist -55.8523
rhand 13.1028 15.495
rfingers 7.12502
rthumb 38.063 -10.2871
lclavicle -2.24627e-014 -6.36111e-015
lhumerus -50.4859 25.3873 48.4618
lradius 22.0299
lwrist -17.276
lhand -2.43436 36.5855
lfingers 7.12502
lthumb 23.2567 65.2011
rfemur -14.4056 -8.62947 14.5701
rtibia 26.6538
rfoot -10.3849 -12.315
rtoes -28.6693
lfemur -36.544 18.542 -14.9611
ltibia 73.7015
lfoot -17.7859 8.01218
ltoes -4.25102
159
root 17.2084 16.7591 -0.727876 -233.977 -76.5214 -117.399
lowerback 15.2965 1.29722 6.02882
upperback 4.36579 2.48209 6.42313
thorax -3.94388 0.996336 2.94766
lowerneck 3.53763 -18.8638 -14.3566
upperneck 5.59578 -26.9747 16.8888
head 5.36392 -13.3917 5.42252
rclavicle -1.07344e-014 -2.14687e-014
rhumerus -20.2404 -61.6137 -17.5643
rradius 48.0676
rwrist -56.0854
rhand 7.25925 16.7551
rfingers 7.12502
rthumb 32.5224 -10.3446
lclavicle -1.07344e-014 -2.14687e-014
lhumerus -49.9894 24.9339 48.5949
lradius 22.2666
lwrist -16.2947
lhand -2.05077 37.0093
lfingers 7.12502
lthumb 23.6247 65.5778
rfemur -13.7064 -8.6158 15.0035
rtibia 26.6715
rfoot -10.8463 -13.3121
rtoes -28.3215
lfemur -36.0295 18.7037 -14.3939
ltibia 72.9983
lfoot -18.7926 6.64118
ltoes -2.8131
160
root 17.1886 16.7333 -0.668541 -239.957 -76.9213 -111.223
lowerback 14.9532 1.0795 6.1896
upperback 4.33917 2.19548 6.45321
thorax -3.77786 0.861098 2.94487
lowerneck 3.5042 -18.9187 -14.6009
upperneck 5.76728 -27.1266 17.2297
head 5.53011 -13.4574 5.50465
rclavicle 6.16232e-015 -7.15625e-015
rhumerus -22.5517 -62.0996 -15.2131
rradius 47.8017
rwrist -55.9783
rhand 10.2846 15.1058
rfingers 7.12502
rthumb 35.3962 -11.3568
lclavicle 6.16232e-015 -7.15625e-015
lhumerus -49.688 24.8086 48.6133
lradius 22.5315
lwrist -15.2589
lhand -2.05688 37.022
lfingers 7.12502
lthumb 23.6188 65.5913
rfemur -13.4362 -9.069 15.1054
rtibia 26.8085
rfoot -11.4043 -14.0256
rtoes -27.9998
lfemur -35.8542 18.6123 -14.3924
ltibia 72.2208
lfoot -19.7679 5.29977
ltoes -3.46041
161
root 17.1649 16.725 -0.629084 -241.279 -77.8321 -108.977
lowerback 13.78 1.11769 4.87317
upperback 4.12521 2.01526 6.22531
thorax -3.41438 0.808219 3.47865
lowerneck 3.61016 -18.8769 -14.8252
upperneck 5.87447 -27.1621 17.6247
head 5.64215 -13.4765 5.63711
rclavicle 8.74653e-015 -4.13472e-014
rhumerus -24.2939 -62.4749 -13.4651
rradius 47.2712
rwrist -55.4389
rhand 10.4352 14.5731
rfingers 7.12502
rthumb 35.539 -11.8553
lclavicle 8.74653e-015 -4.13472e-014
lhumerus -49.7686 24.8511 48.3096
lradius 23.11
lwrist -14.3412
lhand -1.98401 36.7978
lfingers 7.12502
lthumb 23.6887 65.3581
rfemur -14.2231 -8.90291 14.3702
rtibia 26.9801
rfoot -11.7057 -15.0722
rtoes -27.1527
lfemur -36.4645 19.1399 -15.7515
ltibia 71.4535
lfoot -20.4693 4.49963
ltoes -5.94665
